<?xml version="1.0" encoding="utf-8"?>
<!-- Generator: Adobe Illustrator 26.5.0, SVG Export Plug-In . SVG Version: 6.00 Build 0)  -->
<svg version="1.1" id="Layer_1" xmlns="http://www.w3.org/2000/svg" xmlns:xlink="http://www.w3.org/1999/xlink" x="0px" y="0px"
	 viewBox="0 0 183.52 43.3" style="enable-background:new 0 0 183.52 43.3;" xml:space="preserve">
<style type="text/css">
	.st0{fill:#F4899C;}
	.st1{fill:#FBB040;}
	.st2{fill:#2BB673;}
	.st3{fill:#AD98C8;}
	.st4{fill:#1C75BC;}
	.st5{fill:#F1584D;}
	.st6{fill:#F7941D;}
	.st7{fill:#4397D2;}
	.st8{fill:none;stroke:#FBB040;stroke-width:2;stroke-linecap:round;stroke-miterlimit:10;}
</style>
<g>
	<path class="st0" d="M27.73,36.57c-0.17-0.35-0.23-0.67-0.17-0.95s0.18-0.51,0.36-0.67c0.18-0.16,0.42-0.25,0.71-0.25
		s0.59,0.11,0.9,0.32c0.45,0.56,0.98,1,1.59,1.31s1.27,0.5,1.97,0.55l0.61-0.17c0.16-0.12,0.26-0.19,0.32-0.23s0.1-0.07,0.13-0.1
		c0.03-0.03,0.07-0.07,0.12-0.13s0.13-0.16,0.25-0.32c0.04-0.08,0.07-0.16,0.09-0.23c0.02-0.08,0.05-0.16,0.09-0.26
		c0-0.1,0-0.18,0.01-0.26s0.01-0.16,0.01-0.26l-0.17-0.52c-0.06-0.08-0.12-0.16-0.19-0.23c-0.07-0.08-0.13-0.16-0.19-0.23
		c-0.49-0.31-0.97-0.53-1.46-0.67c-0.49-0.14-0.96-0.28-1.41-0.42c-0.46-0.15-0.9-0.34-1.34-0.57s-0.85-0.61-1.24-1.14
		c-0.37-0.47-0.57-1.01-0.6-1.62s0.07-1.2,0.29-1.76c0.22-0.56,0.55-1.06,0.99-1.5c0.44-0.44,0.94-0.71,1.5-0.83
		c0.82-0.19,1.65-0.21,2.49-0.06c0.85,0.16,1.64,0.43,2.38,0.82c0.35,0.25,0.55,0.54,0.61,0.86s0.01,0.6-0.13,0.83
		c-0.15,0.23-0.37,0.4-0.67,0.5s-0.65,0.05-1.03-0.15c-0.47-0.25-0.96-0.42-1.47-0.5c-0.51-0.08-1.03-0.08-1.56,0
		c-0.06,0.04-0.12,0.07-0.19,0.09s-0.13,0.05-0.19,0.09c-0.21,0.23-0.37,0.46-0.47,0.68c-0.1,0.22-0.14,0.5-0.12,0.83
		c0.02,0.08,0.07,0.19,0.15,0.35c0.06,0.08,0.12,0.15,0.17,0.2c0.06,0.06,0.12,0.13,0.17,0.2c0.47,0.25,0.98,0.45,1.53,0.6
		s1.09,0.31,1.62,0.5c0.52,0.18,1.01,0.43,1.46,0.73c0.45,0.3,0.8,0.74,1.05,1.33c0.47,1.11,0.54,2.13,0.22,3.06
		s-0.97,1.72-1.94,2.36c-0.25,0.16-0.53,0.29-0.85,0.39c-0.31,0.11-0.6,0.16-0.87,0.16c-1.05,0-2.08-0.24-3.09-0.71
		C29.17,38.09,28.35,37.43,27.73,36.57z"/>
	<path class="st1" d="M51.28,36.69c0.21,0.27,0.32,0.57,0.32,0.9s-0.11,0.6-0.32,0.8c-0.21,0.2-0.48,0.31-0.79,0.31
		c-0.43,0-0.8-0.2-1.11-0.6s-0.57-0.85-0.79-1.36c-0.51,0.54-1.1,1.01-1.78,1.38c-0.68,0.38-1.38,0.57-2.1,0.57
		c-0.52,0-1.03-0.09-1.52-0.28c-0.49-0.18-0.94-0.44-1.35-0.76c-0.42-0.32-0.79-0.69-1.11-1.12s-0.56-0.87-0.71-1.34
		c-0.16-0.51-0.26-1.06-0.32-1.68c-0.06-0.61-0.09-1.25-0.09-1.91c0-0.8,0.02-1.57,0.06-2.33s0.06-1.43,0.06-2.01
		c0.1-0.39,0.25-0.68,0.47-0.87c0.21-0.19,0.46-0.29,0.73-0.29c0.25,0,0.49,0.09,0.71,0.26c0.22,0.17,0.38,0.45,0.48,0.82
		c0,0.91-0.01,1.79-0.04,2.64c-0.03,0.85-0.04,1.74-0.04,2.7c0,1.09,0.23,1.98,0.7,2.68s1.1,1.05,1.89,1.05
		c0.29,0,0.58-0.06,0.87-0.17s0.56-0.27,0.82-0.47c0.25-0.19,0.49-0.42,0.7-0.67s0.41-0.51,0.58-0.76c0.04-0.04,0.09-0.07,0.15-0.1
		c0.06-0.03,0.11-0.06,0.15-0.1c-0.12-0.97-0.17-1.95-0.17-2.94c0-0.56,0-1.13,0.01-1.7s0.06-1.1,0.15-1.57
		c0.09-0.48,0.23-0.86,0.44-1.17c0.2-0.3,0.49-0.45,0.86-0.45c0.29,0,0.55,0.11,0.79,0.34c0.23,0.22,0.35,0.55,0.35,0.98
		c0,0.45-0.03,0.99-0.1,1.63s-0.1,1.31-0.1,2.01c0,0.54,0.02,1.09,0.06,1.63s0.1,1.06,0.19,1.56c0.09,0.5,0.2,0.95,0.35,1.36
		C50.86,36.05,51.05,36.4,51.28,36.69z"/>
	<path class="st2" d="M64.2,38.83c-0.24,0.22-0.51,0.34-0.8,0.34c-0.27,0-0.52-0.1-0.76-0.31c-0.23-0.2-0.38-0.52-0.44-0.95
		c0-0.89-0.01-1.78-0.01-2.67c-0.01-0.88-0.01-1.77-0.01-2.67c0-0.64,0-1.28,0.01-1.92s-0.03-1.28-0.13-1.92
		c-0.16-0.29-0.33-0.47-0.51-0.54s-0.4-0.1-0.66-0.1c-0.66,0-1.31,0.16-1.95,0.48s-1.15,0.76-1.52,1.33
		c-0.21,0.33-0.38,0.61-0.51,0.83c-0.13,0.22-0.21,0.55-0.25,0.98c0,0.99,0,1.98,0,2.97s0.01,1.98,0.03,2.97
		c-0.02,0.45-0.15,0.78-0.39,1.01C56.06,38.88,55.79,39,55.5,39c-0.27,0-0.52-0.1-0.76-0.31c-0.23-0.2-0.38-0.52-0.44-0.95
		c0-0.93,0-1.84,0-2.71s-0.01-1.74-0.01-2.59c-0.01-0.85-0.01-1.72-0.01-2.61c0-0.88,0-1.79,0-2.72c0.1-0.39,0.25-0.68,0.47-0.87
		c0.21-0.19,0.46-0.29,0.73-0.29c0.25,0,0.49,0.09,0.71,0.26c0.22,0.17,0.38,0.45,0.48,0.82v0.23c0.56-0.49,1.2-0.87,1.91-1.15
		c0.71-0.28,1.42-0.42,2.14-0.42s1.39,0.17,2.03,0.5c0.63,0.33,1.14,0.86,1.53,1.6c0.14,0.25,0.23,0.57,0.28,0.95
		c0.05,0.38,0.08,0.78,0.09,1.19c0.01,0.42,0,0.85-0.01,1.28c-0.02,0.44-0.03,0.85-0.03,1.24v3.44v1.95
		C64.58,38.27,64.45,38.61,64.2,38.83z"/>
	<path class="st3" d="M66.87,36.57c-0.17-0.35-0.23-0.67-0.17-0.95c0.06-0.28,0.18-0.51,0.36-0.67c0.18-0.16,0.42-0.25,0.71-0.25
		s0.59,0.11,0.9,0.32c0.45,0.56,0.98,1,1.59,1.31c0.61,0.31,1.27,0.5,1.97,0.55l0.61-0.17c0.16-0.12,0.26-0.19,0.32-0.23
		s0.1-0.07,0.13-0.1s0.07-0.07,0.12-0.13s0.13-0.16,0.25-0.32c0.04-0.08,0.07-0.16,0.09-0.23c0.02-0.08,0.05-0.16,0.09-0.26
		c0-0.1,0-0.18,0.01-0.26s0.01-0.16,0.01-0.26l-0.17-0.52c-0.06-0.08-0.12-0.16-0.19-0.23c-0.07-0.08-0.13-0.16-0.19-0.23
		c-0.49-0.31-0.97-0.53-1.46-0.67s-0.96-0.28-1.41-0.42c-0.46-0.15-0.9-0.34-1.34-0.57c-0.44-0.23-0.85-0.61-1.24-1.14
		c-0.37-0.47-0.57-1.01-0.6-1.62s0.07-1.2,0.29-1.76c0.22-0.56,0.55-1.06,0.99-1.5c0.44-0.44,0.94-0.71,1.5-0.83
		c0.82-0.19,1.65-0.21,2.49-0.06c0.85,0.16,1.64,0.43,2.38,0.82c0.35,0.25,0.55,0.54,0.61,0.86s0.01,0.6-0.13,0.83
		c-0.15,0.23-0.37,0.4-0.67,0.5c-0.3,0.1-0.65,0.05-1.03-0.15c-0.47-0.25-0.96-0.42-1.47-0.5s-1.03-0.08-1.56,0
		c-0.06,0.04-0.12,0.07-0.19,0.09s-0.13,0.05-0.19,0.09c-0.21,0.23-0.37,0.46-0.47,0.68s-0.14,0.5-0.12,0.83
		c0.02,0.08,0.07,0.19,0.15,0.35c0.06,0.08,0.12,0.15,0.17,0.2c0.06,0.06,0.12,0.13,0.17,0.2c0.47,0.25,0.98,0.45,1.53,0.6
		c0.55,0.15,1.09,0.31,1.62,0.5c0.52,0.18,1.01,0.43,1.46,0.73c0.45,0.3,0.8,0.74,1.05,1.33c0.47,1.11,0.54,2.13,0.22,3.06
		s-0.97,1.72-1.94,2.36c-0.25,0.16-0.53,0.29-0.85,0.39c-0.31,0.11-0.6,0.16-0.87,0.16c-1.05,0-2.08-0.24-3.09-0.71
		C68.31,38.09,67.49,37.43,66.87,36.57z"/>
	<path class="st4" d="M88.81,35.29c0.41-0.16,0.76-0.17,1.05-0.06c0.29,0.12,0.5,0.3,0.63,0.55s0.15,0.53,0.06,0.85
		c-0.09,0.31-0.32,0.57-0.68,0.79c-0.64,0.37-1.33,0.71-2.07,1.02s-1.49,0.52-2.24,0.64c-0.76,0.12-1.51,0.11-2.24-0.01
		c-0.74-0.13-1.45-0.42-2.13-0.89c-0.82-0.56-1.44-1.33-1.87-2.29s-0.65-1.96-0.67-3c-0.02-1.04,0.17-2.04,0.57-3
		s1.02-1.73,1.88-2.32c0.89-0.6,1.87-1.05,2.91-1.36c1.05-0.3,2.11-0.34,3.18-0.1c0.52,0.12,1,0.36,1.43,0.74s0.77,0.82,1.03,1.31
		c0.26,0.5,0.4,1.02,0.42,1.57s-0.12,1.07-0.41,1.56c-0.33,0.54-0.81,1.01-1.43,1.38c-0.62,0.38-1.3,0.7-2.03,0.96
		c-0.73,0.26-1.46,0.48-2.19,0.66c-0.73,0.17-1.37,0.34-1.91,0.5c-0.23,0.06-0.46,0.07-0.67,0.03c0.29,0.62,0.72,1.13,1.3,1.53
		c0.57,0.4,1.29,0.57,2.14,0.51c0.68-0.04,1.36-0.23,2.05-0.57C87.62,35.95,88.25,35.62,88.81,35.29z M83.13,29.08
		c-0.72,0.37-1.25,0.89-1.6,1.56s-0.52,1.37-0.52,2.11c0.14-0.1,0.28-0.17,0.44-0.23c0.35-0.1,0.7-0.2,1.06-0.31S83.23,32,83.6,31.9
		c0.23-0.06,0.55-0.15,0.95-0.26c0.4-0.12,0.81-0.25,1.24-0.41s0.82-0.34,1.17-0.54c0.35-0.2,0.58-0.43,0.7-0.68
		c0.04-0.64-0.12-1.08-0.47-1.31c-0.35-0.23-0.77-0.35-1.25-0.35c-0.49,0-0.99,0.08-1.52,0.25C83.89,28.76,83.46,28.93,83.13,29.08z
		"/>
	<path class="st5" d="M92.5,28c-0.2-0.23-0.31-0.49-0.31-0.76c0-0.27,0.11-0.54,0.34-0.8c0.22-0.26,0.56-0.39,1.01-0.39h1.63v-4.6
		c0.1-0.39,0.25-0.68,0.47-0.87c0.21-0.19,0.46-0.29,0.73-0.29c0.25,0,0.49,0.09,0.71,0.26s0.38,0.45,0.48,0.82v4.69h2.8
		c0.37,0.1,0.64,0.26,0.82,0.48c0.17,0.22,0.26,0.46,0.26,0.71c0,0.27-0.1,0.52-0.29,0.73c-0.19,0.21-0.49,0.37-0.87,0.47h-2.71
		c-0.02,1.5-0.02,3.04,0,4.62c0.02,1.58,0.03,3.12,0.03,4.62c0,0.45-0.13,0.78-0.39,1.01c-0.26,0.22-0.53,0.34-0.8,0.34
		c-0.27,0-0.52-0.1-0.76-0.31c-0.23-0.2-0.38-0.52-0.44-0.95c0-1.52-0.01-3.07-0.01-4.66c-0.01-1.59-0.01-3.15-0.01-4.66h-1.72
		C93.02,28.38,92.7,28.24,92.5,28z"/>
	<path class="st6" d="M116.03,38.23c-0.33,0.19-0.64,0.28-0.93,0.25s-0.52-0.13-0.7-0.31c-0.17-0.17-0.28-0.41-0.31-0.7
		s0.05-0.6,0.25-0.93l0.09-0.09V21.3c0.08-0.37,0.23-0.65,0.45-0.85c0.22-0.19,0.46-0.3,0.7-0.31c0.24-0.01,0.48,0.07,0.71,0.25
		c0.23,0.17,0.41,0.45,0.52,0.82v6.94c0.43-0.41,0.88-0.73,1.37-0.96c0.45-0.25,0.87-0.43,1.27-0.54c0.4-0.11,0.85-0.19,1.36-0.25
		c0.5-0.08,0.98-0.03,1.43,0.15c0.45,0.17,0.88,0.39,1.31,0.64c0.56,0.33,0.99,0.79,1.28,1.37s0.5,1.21,0.61,1.88
		c0.12,0.67,0.16,1.35,0.15,2.04c-0.02,0.69-0.08,1.31-0.17,1.85c-0.04,0.31-0.13,0.61-0.26,0.89c-0.14,0.28-0.28,0.56-0.44,0.83
		c-0.27,0.54-0.64,1.01-1.11,1.38c-0.47,0.38-0.99,0.68-1.56,0.9c-0.57,0.22-1.17,0.38-1.78,0.47c-0.61,0.09-1.19,0.11-1.73,0.07
		c-0.45-0.04-0.87-0.11-1.28-0.2c-0.41-0.1-0.81-0.26-1.19-0.5C116.06,38.19,116.05,38.21,116.03,38.23z M116.82,31.76v4.08
		c0.06,0.04,0.16,0.1,0.32,0.17c0.04,0.04,0.08,0.07,0.12,0.09s0.08,0.05,0.12,0.09c1.01,0.39,1.97,0.46,2.89,0.2
		c0.91-0.25,1.72-0.79,2.42-1.6c0.19-0.47,0.34-0.9,0.42-1.3c0.09-0.4,0.13-0.8,0.13-1.19c0-0.4-0.04-0.8-0.12-1.21
		c-0.08-0.41-0.2-0.85-0.38-1.31c-0.1-0.1-0.18-0.2-0.25-0.31s-0.15-0.21-0.25-0.31c-0.1-0.04-0.19-0.09-0.28-0.15
		c-0.09-0.06-0.18-0.11-0.28-0.15c-0.1-0.02-0.2-0.04-0.32-0.06c-0.12-0.02-0.22-0.04-0.32-0.06c-0.93,0.16-1.7,0.47-2.3,0.95
		c-0.6,0.48-1.17,1.08-1.69,1.82L116.82,31.76z"/>
	<path class="st2" d="M129.15,28.56c-0.29-0.16-0.51-0.34-0.64-0.55c-0.14-0.21-0.2-0.43-0.2-0.64c0-0.29,0.11-0.55,0.32-0.77
		c0.21-0.22,0.51-0.34,0.87-0.34c0.27,0,0.61,0.1,1.02,0.29s0.73,0.41,0.96,0.64c0.6-0.51,1.22-0.92,1.87-1.25
		c0.64-0.33,1.29-0.5,1.95-0.5c0.19,0,0.48,0.05,0.84,0.15c0.37,0.1,0.73,0.24,1.09,0.44c0.36,0.19,0.68,0.45,0.95,0.76
		c0.27,0.31,0.41,0.67,0.41,1.08c0,0.33-0.11,0.6-0.32,0.8c-0.21,0.2-0.48,0.31-0.79,0.31c-0.21,0-0.4-0.06-0.57-0.19
		c-0.17-0.13-0.33-0.26-0.5-0.41s-0.34-0.28-0.52-0.39c-0.18-0.12-0.39-0.17-0.63-0.17c-0.27,0-0.57,0.08-0.89,0.25
		c-0.32,0.17-0.64,0.36-0.96,0.6c-0.32,0.23-0.63,0.49-0.92,0.76c-0.29,0.27-0.54,0.51-0.76,0.73v7.75
		c-0.02,0.45-0.15,0.78-0.39,1.01c-0.24,0.22-0.51,0.34-0.8,0.34c-0.27,0-0.52-0.1-0.76-0.31c-0.23-0.2-0.38-0.52-0.44-0.95v-7.96
		c0-0.04-0.01-0.08-0.01-0.13c-0.01-0.05-0.01-0.09-0.01-0.13s0-0.08,0.01-0.13c0.01-0.05,0.01-0.09,0.01-0.13v-0.88
		C129.27,28.6,129.21,28.58,129.15,28.56z"/>
	<path class="st0" d="M149.37,35.29c0.41-0.16,0.76-0.17,1.05-0.06c0.29,0.12,0.5,0.3,0.63,0.55s0.15,0.53,0.06,0.85
		c-0.09,0.31-0.32,0.57-0.68,0.79c-0.64,0.37-1.33,0.71-2.07,1.02s-1.49,0.52-2.24,0.64c-0.76,0.12-1.51,0.11-2.24-0.01
		c-0.74-0.13-1.45-0.42-2.13-0.89c-0.82-0.56-1.44-1.33-1.87-2.29s-0.65-1.96-0.67-3c-0.02-1.04,0.17-2.04,0.57-3
		c0.4-0.96,1.02-1.73,1.88-2.32c0.89-0.6,1.87-1.05,2.91-1.36c1.05-0.3,2.11-0.34,3.18-0.1c0.52,0.12,1,0.36,1.43,0.74
		s0.77,0.82,1.03,1.31c0.26,0.5,0.4,1.02,0.42,1.57s-0.12,1.07-0.41,1.56c-0.33,0.54-0.81,1.01-1.43,1.38
		c-0.62,0.38-1.3,0.7-2.03,0.96s-1.46,0.48-2.19,0.66c-0.73,0.17-1.37,0.34-1.91,0.5c-0.23,0.06-0.46,0.07-0.67,0.03
		c0.29,0.62,0.72,1.13,1.3,1.53c0.57,0.4,1.29,0.57,2.14,0.51c0.68-0.04,1.36-0.23,2.05-0.57
		C148.18,35.95,148.81,35.62,149.37,35.29z M143.69,29.08c-0.72,0.37-1.25,0.89-1.6,1.56s-0.52,1.37-0.52,2.11
		c0.14-0.1,0.28-0.17,0.44-0.23c0.35-0.1,0.7-0.2,1.06-0.31s0.72-0.21,1.09-0.31c0.23-0.06,0.55-0.15,0.95-0.26
		c0.4-0.12,0.81-0.25,1.24-0.41c0.43-0.16,0.82-0.34,1.17-0.54c0.35-0.2,0.58-0.43,0.7-0.68c0.04-0.64-0.12-1.08-0.47-1.31
		c-0.35-0.23-0.77-0.35-1.25-0.35c-0.49,0-0.99,0.08-1.52,0.25C144.45,28.76,144.02,28.93,143.69,29.08z"/>
	<path class="st7" d="M168.23,26.49c0.19-0.33,0.42-0.55,0.68-0.66s0.51-0.13,0.76-0.06c0.24,0.07,0.45,0.22,0.61,0.47
		c0.16,0.24,0.24,0.55,0.22,0.92c-0.56,1.88-1.14,3.77-1.73,5.67c-0.59,1.89-1.32,3.74-2.17,5.52c-0.29,0.35-0.61,0.53-0.96,0.55
		c-0.35,0.02-0.69-0.14-1.02-0.47c-0.54-1.09-1.05-2.19-1.52-3.29c-0.47-1.11-0.92-2.22-1.37-3.35c-0.08-0.16-0.15-0.32-0.22-0.48
		s-0.13-0.34-0.19-0.51c-0.25,0.62-0.5,1.23-0.73,1.82s-0.47,1.19-0.7,1.81c-0.23,0.61-0.48,1.24-0.73,1.88s-0.52,1.33-0.82,2.07
		c-0.35,0.43-0.74,0.61-1.17,0.55s-0.76-0.33-0.99-0.82c-0.45-1.07-0.84-2.14-1.18-3.22s-0.68-2.17-1.01-3.28
		c-0.23-0.74-0.44-1.47-0.63-2.2c-0.18-0.73-0.34-1.46-0.45-2.2c-0.06-0.43,0.01-0.77,0.2-1.03s0.43-0.42,0.7-0.48
		c0.27-0.06,0.55,0,0.83,0.16c0.28,0.17,0.48,0.45,0.6,0.86c0.21,1.3,0.5,2.6,0.86,3.91c0.36,1.3,0.76,2.59,1.21,3.88
		c0.25-0.64,0.49-1.24,0.71-1.81c0.22-0.56,0.45-1.13,0.67-1.69c0.22-0.56,0.47-1.17,0.73-1.81s0.55-1.36,0.86-2.16
		c0.16-0.27,0.34-0.47,0.57-0.58c0.22-0.12,0.45-0.16,0.67-0.13c0.22,0.03,0.43,0.13,0.63,0.29c0.19,0.17,0.34,0.4,0.44,0.71
		c0.17,0.62,0.38,1.23,0.63,1.82c0.24,0.59,0.48,1.18,0.71,1.76c0.25,0.66,0.51,1.32,0.77,1.97c0.26,0.65,0.53,1.3,0.8,1.94
		c0.54-1.36,1.02-2.74,1.44-4.14C167.38,29.28,167.8,27.89,168.23,26.49z"/>
	<path class="st3" d="M171.67,36.57c-0.17-0.35-0.23-0.67-0.17-0.95s0.18-0.51,0.36-0.67c0.18-0.16,0.42-0.25,0.71-0.25
		s0.59,0.11,0.9,0.32c0.45,0.56,0.98,1,1.59,1.31s1.27,0.5,1.97,0.55l0.61-0.17c0.16-0.12,0.26-0.19,0.32-0.23
		c0.06-0.04,0.1-0.07,0.13-0.1s0.07-0.07,0.12-0.13c0.05-0.06,0.13-0.16,0.25-0.32c0.04-0.08,0.07-0.16,0.09-0.23
		c0.02-0.08,0.05-0.16,0.09-0.26c0-0.1,0-0.18,0.01-0.26s0.01-0.16,0.01-0.26l-0.18-0.52c-0.06-0.08-0.12-0.16-0.19-0.23
		c-0.07-0.08-0.13-0.16-0.19-0.23c-0.49-0.31-0.97-0.53-1.46-0.67s-0.96-0.28-1.41-0.42c-0.46-0.15-0.9-0.34-1.34-0.57
		s-0.85-0.61-1.24-1.14c-0.37-0.47-0.57-1.01-0.6-1.62s0.07-1.2,0.29-1.76c0.22-0.56,0.55-1.06,0.99-1.5s0.94-0.71,1.5-0.83
		c0.82-0.19,1.65-0.21,2.49-0.06c0.84,0.16,1.64,0.43,2.38,0.82c0.35,0.25,0.55,0.54,0.61,0.86s0.01,0.6-0.13,0.83
		c-0.15,0.23-0.37,0.4-0.67,0.5s-0.65,0.05-1.03-0.15c-0.47-0.25-0.96-0.42-1.47-0.5c-0.52-0.08-1.03-0.08-1.56,0
		c-0.06,0.04-0.12,0.07-0.19,0.09s-0.13,0.05-0.19,0.09c-0.21,0.23-0.37,0.46-0.47,0.68s-0.14,0.5-0.12,0.83
		c0.02,0.08,0.07,0.19,0.15,0.35c0.06,0.08,0.12,0.15,0.17,0.2c0.06,0.06,0.12,0.13,0.18,0.2c0.47,0.25,0.98,0.45,1.53,0.6
		s1.09,0.31,1.62,0.5c0.52,0.18,1.01,0.43,1.46,0.73c0.45,0.3,0.8,0.74,1.05,1.33c0.47,1.11,0.54,2.13,0.22,3.06
		c-0.32,0.93-0.97,1.72-1.94,2.36c-0.25,0.16-0.53,0.29-0.84,0.39c-0.31,0.11-0.6,0.16-0.87,0.16c-1.05,0-2.08-0.24-3.09-0.71
		C173.1,38.09,172.29,37.43,171.67,36.57z"/>
</g>
<path class="st8" d="M22.06,30.56c0,0-1.78-16.11,13.41-10.56"/>
<line class="st8" x1="36.95" y1="14.72" x2="42.98" y2="6.83"/>
<line class="st8" x1="28.83" y1="12.75" x2="29.93" y2="2.89"/>
<line class="st8" x1="21.84" y1="14.63" x2="16.76" y2="6.1"/>
<line class="st8" x1="16.73" y1="19.41" x2="7.61" y2="15.5"/>
<line class="st8" x1="16.43" y1="28.07" x2="6.51" y2="27.68"/>
</svg>
