<?xml version="1.0" encoding="UTF-8"?>
<svg id="Layer_1" xmlns="http://www.w3.org/2000/svg" version="1.1" viewBox="0 0 213.53 63.14">
  <!-- Generator: Adobe Illustrator 29.5.1, SVG Export Plug-In . SVG Version: 2.1.0 Build 141)  -->
  <defs>
    <style>
      .st0 {
        fill: #91b8c0;
      }

      .st1 {
        fill: #fff;
      }
    </style>
  </defs>
  <path class="st0" d="M26.5,12.69s-56.85,17.48,0,38.21c56.85,20.74,144.41,4.15,144.41,4.15,0,0,23.41-5.04,32.23-11.26,8.82-6.22,9.12-11.97,9.12-11.97,0,0,3.04-14.1-45-24.17-48.04-10.07-113.1-1.48-113.1-1.48,0,0-16.6,2.02-27.67,6.52Z"/>
  <g>
    <path class="st1" d="M17.1,31.11c0-9.82,5.63-14.5,11.45-15.94,5.82-1.43,11.51,1.69,11.51,15.93,0,14.24-5.69,17.42-11.51,15.98-5.82-1.44-11.45-6.16-11.45-15.97ZM32.83,31.11c0-7.19-2.06-8.28-4.28-8.01-2.22.27-4.27,1.72-4.27,8.02,0,6.3,2.05,7.79,4.27,8.06,2.22.27,4.28-.87,4.28-8.06Z"/>
    <path class="st1" d="M43.73,48.44V13.82c0-.63.32-1.14.76-1.22,4.58-.77,9.18-1.46,13.78-2.06.44-.06.76.42.76,1.13,0,2.54,0,5.08,0,7.61,0,.71-.32,1.25-.76,1.28-2.48.17-4.96.34-7.44.54v4.27c2.18-.1,4.37-.19,6.56-.27.44-.02.76.48.76,1.19,0,2.52,0,5.05,0,7.57,0,.71-.32,1.21-.76,1.2-2.19-.06-4.37-.11-6.56-.18v14.63c0,.67-.32,1.11-.76,1.04-1.86-.28-3.73-.58-5.59-.9-.44-.07-.76-.59-.76-1.22Z"/>
    <path class="st1" d="M62.52,50.99V11.27c0-.72.32-1.29.76-1.34,4.61-.53,9.23-.98,13.86-1.33.44-.03.76.51.76,1.28,0,2.77,0,5.55,0,8.32,0,.78-.32,1.35-.76,1.37-2.49.1-4.99.21-7.47.34v4.78c2.2-.06,4.39-.12,6.59-.17.44-.01.76.54.76,1.32v8.29c0,.77-.32,1.33-.76,1.32-2.2-.03-4.39-.07-6.59-.11v16.38c0,.75-.32,1.27-.76,1.22-1.87-.19-3.75-.39-5.62-.61-.44-.05-.76-.62-.76-1.34Z"/>
    <path class="st1" d="M80.4,47.08v-5.75c0-1.56.36-2.26.93-2.25.52.01.97.59,1.53,1.32,1.61,2.04,3.62,3.55,5.15,3.59,1.57.04,2.66-.95,2.66-3.72,0-2.62-1.49-3.51-2.9-4.25-3.95-2.08-7.21-5.51-7.21-14.3,0-10.27,4.51-14.37,8.94-14.58,3.26-.15,5.88,1.61,7.09,2.91.89.94,1.21,1.67,1.21,3.65v5.95c0,1.62-.36,2.35-.93,2.36-.48,0-.93-.65-1.45-1.31-.97-1.23-2.54-3.11-4.67-3.06-1.13.03-2.34.86-2.34,3.54,0,2.46,1.13,3.1,2.74,3.96,4.23,2.22,7.37,5.23,7.37,15.16,0,10.3-4.64,15.07-9.39,14.84-3.87-.18-6.48-2.65-7.49-3.98-1.01-1.34-1.25-2.13-1.25-4.05Z"/>
    <path class="st1" d="M102.16,53.34V8.93c0-.81.32-1.4.77-1.4,1.88-.01,3.76,0,5.64,0,.44,0,.77.6.77,1.41,0,5.08,0,10.16,0,15.24,2.23,0,4.46.02,6.69.04,0-5.05,0-10.1,0-15.15,0-.81.32-1.38.77-1.37,1.88.06,3.76.13,5.64.22.44.02.77.62.77,1.41,0,14.53,0,29.07,0,43.6,0,.79-.32,1.39-.77,1.41-1.88.09-3.76.16-5.64.22-.44.01-.77-.56-.77-1.37,0-5.86,0-11.71,0-17.57-2.23.01-4.46.02-6.69.03,0,5.89,0,11.78,0,17.67,0,.81-.32,1.4-.77,1.41-1.88.02-3.76.02-5.64,0-.44,0-.77-.6-.77-1.4Z"/>
    <path class="st1" d="M126.9,31.1c0-18.21,5.76-23.36,11.66-22.75,5.91.62,11.64,6.45,11.64,22.75,0,16.3-5.73,22.19-11.64,22.81-5.91.62-11.66-4.61-11.66-22.82ZM142.9,31.1c0-9.44-2.09-11.33-4.34-11.44-2.25-.12-4.34,1.61-4.34,11.44,0,9.83,2.09,11.63,4.34,11.51,2.25-.12,4.34-2.07,4.34-11.51Z"/>
    <path class="st1" d="M171.45,39c.84,2.1,1.67,4.15,2.5,6.14.28.7.56.87,1.03,1.05.32.1.52.28.52.8,0,.58-.28,1-.71,1.08-1.97.38-3.95.75-5.93,1.1-1.67.3-2.15-.93-3.03-3.3-.98-2.71-1.97-5.49-2.95-8.35-.28-.82-.6-1.16-1.12-1.14-.25.01-.51.02-.76.03v12.91c0,.66-.32,1.19-.76,1.26-1.86.28-3.73.55-5.6.81-.44.06-.76-.41-.76-1.1V11.98c0-.7.32-1.16.76-1.1,3.81.52,7.62,1.1,11.42,1.74,4.46.84,7.44,6.03,7.44,12.27,0,5.11-1.99,8.67-4.89,9.88,1.35.74,1.91,1.94,2.83,4.23ZM161.01,28.57c.77.02,1.54.03,2.32.05,2.07.04,3.11-1.03,3.11-3.9,0-2.87-1.04-4.07-3.07-4.26-.78-.07-1.57-.14-2.36-.21v8.32Z"/>
    <path class="st1" d="M178.13,46.44V15.83c0-.56.32-.9.75-.81,4.56.94,9.1,1.97,13.63,3.08.43.11.75.51.75.95v4.73c0,.44-.32.72-.75.67-2.44-.31-4.89-.6-7.34-.89v3.22c1.9.13,3.79.26,5.68.39.43.03.75.39.75.84,0,1.63,0,3.25,0,4.88,0,.45-.32.8-.75.82-1.89.09-3.79.17-5.68.25v4.74c2.49-.29,4.98-.59,7.46-.9.43-.05.75.23.75.66v4.72c0,.44-.32.84-.75.95-4.57,1.13-9.15,2.16-13.75,3.11-.44.09-.75-.25-.75-.81Z"/>
  </g>
</svg>