<?xml version="1.0" encoding="UTF-8"?>
<svg id="Layer_1" data-name="Layer 1" xmlns="http://www.w3.org/2000/svg" viewBox="0 0 108 72">
  <defs>
    <style>
      .cls-1 {
        fill: #231f20;
      }

      .cls-2 {
        fill: #90cff2;
      }

      .cls-3 {
        fill: #005fae;
      }
    </style>
  </defs>
  <path class="cls-1" d="M39.34,51.15c-.58,0-1.09-.02-1.54-.05-.45-.03-.87-.07-1.27-.12-.4-.05-.81-.12-1.22-.22-.42-.1-.86-.21-1.34-.34-.64-.19-1.33-.42-2.06-.67-.74-.26-1.38-.38-1.92-.38-.48,0-.81.1-.98.29-.18.19-.33.46-.46.82h-.72v-10.32h.53c.51,2.43,1.21,4.34,2.09,5.71.88,1.38,1.83,2.4,2.86,3.07,1.02.67,2.06,1.1,3.12,1.27,1.06.18,2.03.26,2.93.26v-15.6l-2.78-.82c-2.62-.77-4.59-1.82-5.9-3.17-1.31-1.34-1.97-3.1-1.97-5.28,0-1.44.26-2.78.77-4.01.51-1.23,1.23-2.29,2.16-3.17.93-.88,2.04-1.58,3.34-2.09,1.3-.51,2.71-.77,4.25-.77h.14v-2.93h.67v2.93c.96.06,1.77.19,2.42.38.66.19,1.23.4,1.73.62.5.22.94.42,1.34.6.4.18.81.26,1.22.26s.7-.06.84-.17.34-.39.6-.84h.67v8.64h-.58c-.19-1.09-.5-2.14-.91-3.17-.42-1.02-.96-1.94-1.63-2.74-.67-.8-1.48-1.46-2.42-1.99-.94-.53-2.04-.84-3.29-.94v13.58l3.98,1.15c.45.13,1.13.36,2.04.7s1.82.84,2.74,1.51c.91.67,1.71,1.54,2.4,2.62.69,1.07,1.03,2.42,1.03,4.06,0,1.47-.28,2.89-.84,4.25-.56,1.36-1.36,2.56-2.4,3.6-1.04,1.04-2.31,1.87-3.82,2.5-1.5.62-3.22.94-5.14.94v3.36h-.67v-3.36ZM39.34,16.25h-.14c-.77,0-1.62.1-2.54.31-.93.21-1.79.56-2.59,1.06-.8.5-1.46,1.17-1.99,2.02-.53.85-.79,1.9-.79,3.14,0,1.02.2,1.9.6,2.62.4.72.93,1.34,1.58,1.85.66.51,1.4.93,2.23,1.25.83.32,1.66.59,2.5.82l1.15.34v-13.39ZM40.01,50.48c1.7,0,3.09-.26,4.18-.77s1.95-1.15,2.59-1.92c.64-.77,1.09-1.61,1.34-2.52.26-.91.38-1.75.38-2.52,0-1.15-.19-2.13-.58-2.93-.38-.8-.87-1.46-1.46-1.99-.59-.53-1.24-.95-1.94-1.27-.7-.32-1.38-.58-2.02-.77l-2.5-.72v15.41Z"/>
  <path class="cls-2" d="M33.97,50.43c-.64-.19-1.33-.42-2.06-.67-.74-.26-1.38-.38-1.92-.38-.48,0-.81.1-.98.29-.18.19-.33.46-.46.82h-.72v-10.32h.53c.51,2.43,1.21,4.34,2.09,5.71.88,1.38,1.83,2.4,2.86,3.07M42.44,15.97c.66.19,1.23.4,1.73.62.5.22.94.42,1.34.6.4.18.81.26,1.22.26s.7-.06.84-.17.34-.39.6-.84h.67v8.64h-.58c-.19-1.09-.5-2.14-.91-3.17-.42-1.02-.96-1.94-1.63-2.74-.67-.8-1.48-1.46-2.42-1.99"/>
  <path class="cls-1" d="M73.33,31.95c3.17,1.58,4.75,2.45,5.9,3.31,2.06,1.54,3.07,3.55,3.07,6.1,0,3.17-1.68,6.34-4.32,8.11-1.34.86-2.54,1.3-4.66,1.54v4.32h-1.63v-4.32c-5.38-.48-9.41-3.6-9.41-7.2,0-1.82,1.15-3.26,2.64-3.26,1.39,0,2.59,1.49,2.5,3.07q-.1,1.78-.1,2.06c0,1.3.24,2.16.82,2.74.86.91,2.16,1.49,3.55,1.49v-13.06c-.43-.24-.82-.43-1.06-.58-3.6-1.82-4.27-2.26-5.38-3.46-1.3-1.39-2.11-3.41-2.11-5.33,0-2.69,1.44-5.38,3.75-7.01,1.34-.91,2.54-1.34,4.8-1.73v-3.98h1.63v3.98c5.14.14,8.78,2.64,8.78,5.95,0,1.54-.91,2.54-2.21,2.54-1.15,0-2.11-.77-2.5-1.92-.29-.77-.29-.91-.29-2.98,0-1.49-1.34-2.4-3.79-2.5v12.1ZM71.7,19.95c-3.07.34-5.14,2.4-5.14,5.14,0,1.58.82,3.22,2.21,4.22.72.58,1.2.86,2.93,1.82v-11.18ZM73.33,49.85c1.44-.19,2.11-.43,3.02-1.01,1.63-1.1,2.64-2.98,2.64-4.9,0-2.64-1.25-3.98-5.66-6.29v12.19Z"/>
  <path class="cls-3" d="M71.7,51.01c-5.38-.48-9.41-3.6-9.41-7.2,0-1.82,1.15-3.26,2.64-3.26,1.39,0,2.59,1.49,2.5,3.07q-.1,1.78-.1,2.06c0,1.3.24,2.16.82,2.74.86.91,2.16,1.49,3.55,1.49M73.33,18.75c5.14.14,8.78,2.64,8.78,5.95,0,1.54-.91,2.54-2.21,2.54-1.15,0-2.11-.77-2.5-1.92-.29-.77-.29-.91-.29-2.98,0-1.49-1.34-2.4-3.79-2.5"/>
  <rect class="cls-2" x="39.34" y="12.65" width=".67" height="41.86"/>
  <rect class="cls-3" x="71.7" y="14.76" width="1.63" height="40.56"/>
</svg>